<svg width="400" height="88" viewBox="0 0 400 88" fill="none" xmlns="http://www.w3.org/2000/svg">
<path d="M241.906 27.8298H324.325C324.916 27.8298 325.395 28.3091 325.395 28.9002V31.041C325.395 31.6321 324.916 32.1113 324.325 32.1113H241.906" fill="#CE1126"/>
<path d="M158.416 27.8298H241.906V32.1113H158.416" fill="white"/>
<path d="M158.416 27.8298H75.9971C75.406 27.8298 74.9268 28.3091 74.9268 28.9002V31.041C74.9268 31.6321 75.406 32.1113 75.9971 32.1113H158.416" fill="#00377B"/>
<path d="M131.057 14.8776C129.199 14.8776 127.586 14.5634 126.216 13.9352C124.866 13.3069 123.824 12.4314 123.093 11.3086C122.38 10.1857 122.023 8.90248 122.023 7.45884C122.023 6.02856 122.389 4.752 123.121 3.62917C123.853 2.49296 124.903 1.60405 126.273 0.96243C127.661 0.32081 129.293 0 131.169 0C133.514 0 135.372 0.434431 136.741 1.30329C137.981 2.0779 138.829 3.10457 139.284 4.3833C139.358 4.58932 139.204 4.80005 138.986 4.80832L136.506 4.90213C136.348 4.90813 136.207 4.80194 136.158 4.65112C135.572 2.87372 133.919 1.98501 131.197 1.98501C129.209 1.98501 127.708 2.49965 126.695 3.52891C125.682 4.54481 125.175 5.85479 125.175 7.45884C125.175 9.08962 125.672 10.4063 126.667 11.4088C127.68 12.398 129.19 12.8926 131.197 12.8926C132.248 12.8926 133.177 12.7255 133.983 12.3913C134.79 12.0571 135.409 11.6026 135.841 11.0279C136.213 10.5523 136.444 10.0356 136.534 9.47775C136.565 9.28632 136.409 9.12304 136.215 9.12304H131.564C131.377 9.12304 131.225 8.97166 131.225 8.78491V7.63656C131.225 7.44982 131.377 7.29843 131.564 7.29843H139.133C139.319 7.29843 139.471 7.44982 139.471 7.63656V14.2186C139.471 14.4054 139.319 14.5568 139.133 14.5568H137.706C137.527 14.5568 137.38 14.4179 137.369 14.2396L137.313 13.3381C137.292 13.0104 136.815 12.8686 136.573 13.09C136.112 13.5104 135.521 13.8723 134.799 14.1758C133.674 14.6437 132.426 14.8776 131.057 14.8776Z" fill="white"/>
<path d="M152.325 0.658936C152.325 0.472194 152.477 0.32081 152.663 0.32081H160.289C162.409 0.32081 164.088 0.708456 165.326 1.48375C166.583 2.25904 167.212 3.30167 167.212 4.61165C167.212 5.41367 166.883 6.11545 166.227 6.71696C165.819 7.10174 165.342 7.4072 164.795 7.63336C164.618 7.70667 164.64 8.08146 164.824 8.13577C166.041 8.4954 166.724 9.25224 166.874 10.4063L167.36 14.1754C167.386 14.3777 167.228 14.5568 167.024 14.5568H164.64C164.47 14.5568 164.326 14.4295 164.305 14.2601L163.863 10.687C163.807 10.0988 163.525 9.67109 163.019 9.40375C162.531 9.13641 161.743 9.00274 160.655 9.00274H155.703C155.516 9.00274 155.364 9.15412 155.364 9.34086V14.2186C155.364 14.4054 155.213 14.5568 155.026 14.5568H152.663C152.477 14.5568 152.325 14.4054 152.325 14.2186V0.658936ZM160.345 7.01772C161.49 7.01772 162.39 6.81722 163.047 6.4162C163.722 6.00182 164.06 5.42036 164.06 4.6718C164.06 3.90988 163.713 3.32841 163.019 2.92739C162.343 2.51301 161.368 2.30582 160.092 2.30582H155.703C155.516 2.30582 155.364 2.45721 155.364 2.64395V6.6796C155.364 6.86634 155.516 7.01772 155.703 7.01772H160.345Z" fill="white"/>
<path d="M188.234 14.8776C186.32 14.8776 184.66 14.5835 183.253 13.9953C181.865 13.3938 180.795 12.5383 180.045 11.4289C179.295 10.306 178.919 8.98269 178.919 7.45884C178.919 5.93499 179.295 4.61165 180.045 3.48881C180.795 2.36598 181.865 1.5038 183.253 0.902278C184.66 0.300759 186.32 0 188.234 0C190.166 0 191.836 0.300759 193.243 0.902278C194.65 1.5038 195.719 2.36598 196.451 3.48881C197.201 4.61165 197.577 5.93499 197.577 7.45884C197.577 8.98269 197.201 10.306 196.451 11.4289C195.719 12.5383 194.65 13.3938 193.243 13.9953C191.836 14.5835 190.166 14.8776 188.234 14.8776ZM188.234 12.8926C190.185 12.8926 191.705 12.418 192.793 11.469C193.881 10.5065 194.425 9.16983 194.425 7.45884C194.425 5.74785 193.871 4.41114 192.765 3.44871C191.676 2.47291 190.166 1.98501 188.234 1.98501C186.32 1.98501 184.81 2.47291 183.703 3.44871C182.615 4.41114 182.071 5.74785 182.071 7.45884C182.071 9.16983 182.615 10.5065 183.703 11.469C184.81 12.418 186.32 12.8926 188.234 12.8926Z" fill="white"/>
<path d="M217.665 14.8776C216.089 14.8776 214.71 14.6637 213.528 14.236C212.365 13.7948 211.465 13.1733 210.827 12.3712C210.208 11.5559 209.898 10.6068 209.898 9.52405V0.638885C209.898 0.452143 210.05 0.300759 210.236 0.300759H212.599C212.786 0.300759 212.937 0.452144 212.937 0.638886V9.52405C212.937 10.6068 213.35 11.4422 214.176 12.0304C215.001 12.6052 216.164 12.8926 217.665 12.8926C219.166 12.8926 220.329 12.6052 221.155 12.0304C221.98 11.4422 222.393 10.6068 222.393 9.52405V0.638885C222.393 0.452143 222.544 0.300759 222.731 0.300759H225.094C225.281 0.300759 225.432 0.452144 225.432 0.638886V9.52405C225.432 10.6068 225.113 11.5559 224.475 12.3712C223.856 13.1733 222.956 13.7948 221.774 14.236C220.61 14.6637 219.241 14.8776 217.665 14.8776Z" fill="white"/>
<path d="M238.864 0.658936C238.864 0.472194 239.016 0.32081 239.203 0.32081H246.322C248.592 0.32081 250.365 0.715139 251.64 1.5038C252.935 2.27909 253.582 3.36182 253.582 4.752C253.582 6.14218 252.935 7.23828 251.64 8.04031C250.365 8.82897 248.592 9.22329 246.322 9.22329H242.242C242.055 9.22329 241.904 9.37468 241.904 9.56142V14.2186C241.904 14.4054 241.752 14.5568 241.566 14.5568H239.203C239.016 14.5568 238.864 14.4054 238.864 14.2186V0.658936ZM246.237 7.25833C247.607 7.25833 248.648 7.05114 249.361 6.63676C250.074 6.20902 250.43 5.58076 250.43 4.752C250.43 3.93661 250.074 3.32841 249.361 2.92739C248.667 2.51301 247.626 2.30582 246.237 2.30582H242.242C242.055 2.30582 241.904 2.45721 241.904 2.64395V6.9202C241.904 7.10695 242.055 7.25833 242.242 7.25833H246.237Z" fill="white"/>
<path d="M266.364 0.658936C266.364 0.472194 266.516 0.32081 266.702 0.32081H279.027C279.214 0.32081 279.365 0.472194 279.365 0.658936V1.9677C279.365 2.15444 279.214 2.30582 279.027 2.30582H269.742C269.555 2.30582 269.404 2.45721 269.404 2.64395V6.11818C269.404 6.30492 269.555 6.45631 269.742 6.45631H278.69C278.876 6.45631 279.028 6.60769 279.028 6.79443V8.04304C279.028 8.22978 278.876 8.38117 278.69 8.38117H269.742C269.555 8.38117 269.404 8.53255 269.404 8.71929V12.2336C269.404 12.4204 269.555 12.5718 269.742 12.5718H279.252C279.439 12.5718 279.59 12.7231 279.59 12.9099V14.2186C279.59 14.4054 279.439 14.5568 279.252 14.5568H266.702C266.516 14.5568 266.364 14.4054 266.364 14.2186V0.658936Z" fill="white"/>
<path d="M18.7487 46.2805L0.0552487 86.783C-0.126007 87.1757 0.160846 87.6241 0.593377 87.6241H6.07341C6.77342 87.6241 7.40829 87.2133 7.69522 86.5748L17.2818 65.2412C17.4775 64.8059 18.0811 64.7685 18.329 65.1764L31.7949 87.3391C31.9024 87.516 32.0944 87.6241 32.3014 87.6241H38.0717C38.4387 87.6241 38.7967 87.5105 39.0965 87.299L70.0371 65.4748C70.5313 65.1263 71.1688 65.6546 70.9181 66.2049L61.5395 86.7856C61.3607 87.1781 61.6475 87.6241 62.0788 87.6241H78.3819C79.081 87.6241 79.7153 87.2144 80.0027 86.5771L98.2671 46.0839C98.444 45.6917 98.1571 45.2476 97.7268 45.2476H91.6223C91.2736 45.2476 90.9326 45.3501 90.6418 45.5424L44.3279 76.1591C44.0403 76.3492 43.6517 76.2546 43.4836 75.9536L26.8464 46.1587C26.5323 45.5962 25.9383 45.2476 25.294 45.2476H20.3631C19.6696 45.2476 19.0393 45.6508 18.7487 46.2805Z" fill="white"/>
<path d="M164.735 45.455C165.156 45.455 165.443 45.8791 165.282 46.268C164.73 47.5947 163.615 50.238 162.83 51.8413C162.552 52.4094 161.969 52.7443 161.336 52.7443H132.919C129.975 52.7443 127.571 53.7122 125.705 55.6478C124.891 56.4562 123.197 59.7343 122.409 61.305C122.213 61.6961 122.499 62.1522 122.936 62.1522H154.515C154.935 62.1522 155.222 62.5772 155.065 62.9667L153.325 67.2767C153.053 67.9503 152.399 68.3908 151.672 68.3892L119.914 68.3183C119.711 68.3178 119.524 68.4186 119.418 68.5919C118.731 69.7224 116.19 74.0947 116.189 76.9594C116.189 79.348 117.62 80.5423 120.481 80.5423H148.997C149.426 80.5423 149.713 80.9848 149.538 81.3769L147.122 86.7794C146.836 87.4195 146.2 87.8315 145.499 87.8315H103.378C91.2457 87.8315 88.8582 76.4003 93.3652 66.6435C96.0601 60.7133 99.9159 55.7918 104.933 51.8795C110.406 47.5966 116.231 45.455 122.409 45.455H164.735Z" fill="white"/>
<path d="M169.462 46.4516L151.467 86.9388C151.293 87.3308 151.579 87.7722 152.008 87.7722H169.372C170.073 87.7722 170.708 87.3608 170.995 86.7215L186.847 51.3568C186.943 51.1437 187.155 51.0066 187.388 51.0066H210.262C212.705 51.0066 214.421 53.4142 213.623 55.7238L213.495 56.0934C212.257 59.6766 208.884 62.0806 205.093 62.0806H186.199C185.707 62.0806 185.266 62.3847 185.091 62.8448L183.515 66.9919C183.353 67.4192 183.45 67.9018 183.766 68.2322L200.7 85.9415C201.818 87.1108 203.366 87.7722 204.984 87.7722H224.041C224.58 87.7722 224.839 87.111 224.444 86.7447L205.619 69.3116C205.223 68.9453 205.482 68.2841 206.021 68.2841H215.189C222.431 68.2841 228.949 63.8918 231.668 57.1797L232.809 54.3631C234.546 50.0769 231.391 45.3957 226.767 45.3957H171.087C170.384 45.3957 169.747 45.8095 169.462 46.4516Z" fill="white"/>
<path d="M261.598 45.4551C262.027 45.4551 262.315 45.8963 262.14 46.2883C260.467 50.0442 253.604 65.4508 251.181 70.844C249.809 73.8914 249.122 76.0742 249.122 77.392C249.122 79.4923 250.682 80.5423 253.802 80.5423H283.822C284.252 80.5423 284.539 80.9849 284.363 81.3769L281.947 86.7794C281.661 87.4195 281.025 87.8316 280.324 87.8316H241.152C237.451 87.8315 234.498 86.9255 232.294 85.1135C229.923 83.2192 228.737 80.4805 228.737 76.8977C228.737 74.0973 229.486 71.0703 230.984 67.817L240.7 46.4957C240.989 45.8619 241.622 45.455 242.318 45.4551L261.598 45.4551Z" fill="white"/>
<path d="M323.099 45.455C323.527 45.455 323.814 45.8963 323.64 46.2883L305.662 86.7751C305.377 87.4175 304.74 87.8315 304.037 87.8315H286.845C286.416 87.8315 286.12 87.408 286.296 87.0159C289.263 80.3875 301.848 52.2667 304.432 46.4936C304.718 45.8537 305.348 45.455 306.049 45.455H323.099Z" fill="white"/>
<path d="M328.576 46.2967L310.309 86.9366C310.133 87.3287 310.42 87.7722 310.85 87.7722H317.668C318.371 87.7722 319.008 87.3584 319.293 86.7163L329.815 63.0409C329.959 62.7179 330.352 62.5915 330.657 62.7702L373.211 87.691C373.302 87.7442 373.406 87.7722 373.511 87.7722H380.342C381.046 87.7722 381.683 87.3572 381.968 86.7137L399.949 46.0801C400.122 45.6882 399.835 45.2476 399.407 45.2476H392.281C391.581 45.2476 390.946 45.6585 390.659 46.2972L380.293 69.3799C380.147 69.7049 379.749 69.8286 379.444 69.6436L339.413 45.3337C339.32 45.2773 339.214 45.2476 339.105 45.2476H330.198C329.498 45.2476 328.863 45.6582 328.576 46.2967Z" fill="white"/>
</svg>
